<svg width="20" height="19" viewBox="0 0 20 19" fill="none" xmlns="http://www.w3.org/2000/svg">
<path d="M5.9 18.575C5.9 18.575 5.7875 18.575 5.7375 18.5375C5.625 18.475 5.575 18.3625 5.575 18.1875L4.175 11.525L0.212499 9.25C0.149999 9.2125 0.0999985 9.1625 0.0624985 9.1C-0.0625015 8.8875 -1.49384e-06 8.6125 0.212499 8.475L19.525 0.9625C19.525 0.9625 19.8 0.85 19.925 0.975C20.05 1.1 20.0125 1.3125 19.8375 1.6875L14.475 16.8C14.475 16.8 14.4125 16.9625 14.2625 17.0125C14.15 17.05 14.0375 17.025 13.9125 16.9375L9.8875 14.7125L6.2375 18.45C6.2375 18.45 6.0625 18.55 5.9 18.55V18.575ZM19.75 1.15C19.75 1.15 19.6625 1.1625 19.625 1.1875L0.312499 8.6875C0.224999 8.7375 0.199998 8.875 0.262498 8.975C0.274998 9 0.299999 9.025 0.337499 9.05L4.375 11.3625L5.8 18.1625C5.8 18.2625 5.8125 18.325 5.85 18.3375C5.9 18.3625 6.025 18.325 6.1 18.2875L9.675 14.625L9.275 14.4L6.1125 17.5625L6.65 12.675L9.2375 14.1125L9.325 14.025C9.525 13.8875 9.7625 13.8875 9.9375 14.0125L9.975 14.0375C10.0875 14.1875 10.1 14.3875 10.0375 14.55L14.0375 16.7625C14.0375 16.7625 14.15 16.825 14.1875 16.8125C14.2375 16.8 14.2625 16.7375 14.2625 16.7375L19.625 1.6C19.8125 1.225 19.7625 1.15 19.7625 1.15H19.75ZM6.8375 13.05L6.4125 16.9125L9.0625 14.275L6.8375 13.05ZM9.45 14.225L9.825 14.4375C9.85 14.3625 9.8375 14.275 9.8 14.1875C9.7 14.1375 9.575 14.1375 9.475 14.1875L9.45 14.2125V14.225ZM5.9125 16.85L4.85 11.2875L4.9125 11.25L15.5125 4.3125L15.65 4.5L6.475 12.2375V12.275L5.9 16.8375L5.9125 16.85ZM5.1125 11.4L5.8625 15.35L6.25 12.2875V12.1625L6.3875 12.025L14.0375 5.5875L5.1125 11.4125V11.4ZM14.125 16.275L14 16.2125L7.0125 12.325L7.1375 12.2125L19.225 2.025L14.125 16.2625V16.275ZM7.425 12.275L14 15.925L18.7125 2.775L7.425 12.275ZM4.5625 10.8875L0.849999 8.85L1.0875 8.7625L17.95 2.2625L4.5625 10.875V10.8875ZM1.4125 8.9L4.55 10.6125L15.8875 3.3L1.4 8.8875L1.4125 8.9Z" fill="#717274"/>
</svg>
